<svg xmlns="http://www.w3.org/2000/svg" width="1000" height="167.268">
    <path d="M824.766 164.59h15.242V86.205h-15.242v78.385zm-.544-88.727h16.875V60.077h-16.875v15.786zm-44.092 65.32h-.544L759.99 86.206H746.38l-22.318 54.979h-.544l-15.242-81.107h-16.33l20.685 104.513h15.242l24.495-57.7h.544l21.23 57.7h15.241l26.129-104.513h-15.786l-19.597 81.107zM585.256 85.118c-21.773 0-38.648 17.419-38.648 40.825 0 24.496 16.33 40.281 39.193 40.281 13.608 0 26.128-4.899 33.204-13.608l-9.253-8.71c-5.988 5.988-13.609 9.254-22.863 9.254-14.697 0-25.04-11.43-25.04-27.761 0-15.242 8.71-28.306 22.863-28.306 16.33 0 20.685 13.064 21.23 21.23h-26.13l-5.443 11.975h46.814v-5.443c1.088-22.318-10.887-39.737-35.927-39.737zm-58.244 2.177v-2.177c0-9.799 4.899-15.242 14.153-15.242 3.266 0 9.253 1.089 13.608 2.177l4.9-10.886c-6.533-2.722-13.61-3.81-19.053-3.81-15.241 0-28.85 7.62-28.85 27.76v2.178h-10.342v12.52h10.342v64.776h15.242V99.814h15.241l5.444-12.52h-20.685zm-137.174-2.177c-10.343 0-19.597 3.81-23.951 11.43h-.545V86.206h-14.697v78.385h15.242v-42.458c0-15.242 8.165-24.496 20.685-24.496 11.975 0 19.052 5.988 19.052 20.685v46.27h15.241V115.6c-.544-20.14-12.52-30.483-31.027-30.483zm-94.171 0c-9.254 0-17.42 1.088-23.951 3.81l2.721 11.976c7.621-2.178 13.609-3.267 19.597-3.267 13.064 0 23.406 5.988 23.406 18.508v2.177c-4.355-1.633-10.342-3.266-20.14-3.266-20.685 0-34.294 10.343-34.294 26.673 0 17.419 13.609 25.04 28.306 25.04 12.52 0 21.23-4.9 25.584-10.343h.544v9.254h14.697v-48.99c0-22.319-14.152-31.572-36.47-31.572zm21.773 49.535c0 11.43-9.798 19.052-23.95 19.052-8.166 0-15.242-3.81-15.242-13.065 0-8.709 7.62-14.152 18.507-14.152 10.343 0 16.875 1.633 20.685 4.354v3.81zM129.098 74.23h34.294v90.36h16.33V74.23h34.293V60.077h-84.917V74.23zM250.486 85.66c-8.71 0-16.874 3.266-21.23 9.254h-.543v-8.71h-14.698v78.385h15.242v-43.003c0-16.33 8.165-23.406 20.685-23.406 4.355 0 7.076.544 10.887 1.088l3.266-11.975c-5.444-1.089-10.887-1.633-13.609-1.633zm401.724 9.254h-.544v-8.71h-14.697v78.385h15.241v-43.003c0-16.33 9.254-23.406 21.23-23.406 4.354 0 7.076.544 10.886 1.088l3.266-11.975c-4.899-2.177-10.342-2.177-13.064-2.177-8.71.544-17.963 3.81-22.318 9.798zm300.477 35.926H999.5v-5.443c0-22.318-11.976-40.281-37.015-40.281-21.774 0-38.648 17.419-38.648 40.825 0 24.496 16.33 40.281 39.192 40.281 13.609 0 26.129-4.899 33.205-13.608l-9.254-8.71c-5.988 5.988-13.608 9.254-22.862 9.254-14.697 0-25.04-11.43-25.04-27.761 0-15.242 8.71-28.306 22.862-28.306 16.33 0 20.685 13.064 21.23 21.23H957.04l-4.354 12.52zm-485.553-11.43c-11.975-1.634-18.508-3.811-18.508-11.432 0-7.076 7.077-10.887 15.242-10.887 7.076 0 15.786 2.722 21.23 6.532l7.62-10.342c-7.076-5.444-17.963-8.165-28.306-8.165-17.963 0-31.027 10.342-31.027 23.95 0 15.787 10.342 20.686 27.761 23.407 9.798 1.633 18.508 2.722 18.508 10.887 0 7.077-7.076 10.343-16.33 10.343-9.254 0-16.875-2.178-25.04-8.165l-6.532 11.43c5.988 4.9 17.963 9.254 31.027 9.254 18.508 0 31.572-10.342 31.572-24.495.545-16.874-13.608-20.685-27.217-22.318zm421.32 0c-11.975-1.634-18.507-3.811-18.507-11.432 0-7.076 7.076-10.887 15.241-10.887 7.077 0 15.786 2.722 21.23 6.532l7.62-10.342c-7.076-5.444-17.963-8.165-28.305-8.165-17.964 0-31.028 10.342-31.028 23.95 0 15.787 10.343 20.686 27.762 23.407 9.798 1.633 18.507 2.722 18.507 10.887 0 7.077-7.076 10.343-16.33 10.343-9.254 0-16.875-2.178-25.04-8.165l-6.532 11.43c5.988 4.9 17.963 9.254 31.028 9.254 18.507 0 31.571-10.342 31.571-24.495.545-16.874-13.064-20.685-27.217-22.318z" fill="#ffffff"/>
    <path d="M15.815.5l22.033 36.542L.5 73.584h64.755l6.986-14.51H35.16l22.033-22.3-13.435-21.496h60.724L51.82 140.219h18.002L128.934.5H15.815z" fill="#00c6ff"/>
</svg>